<?xml version="1.0" encoding="UTF-8"?>
<svg xmlns="http://www.w3.org/2000/svg" xmlns:xlink="http://www.w3.org/1999/xlink" width="100pt" height="100pt" viewBox="0 0 100 100" version="1.1">
<g id="surface4850065">
<path style=" stroke:none;fill-rule:nonzero;fill:rgb(100%,100%,100%);fill-opacity:1;" d="M 49.921875 4 C 49.679688 3.992188 49.4375 4.03125 49.207031 4.109375 L 7.34375 18.679688 C 6.453125 18.988281 5.902344 19.878906 6.015625 20.8125 L 12.628906 75.058594 C 12.707031 75.699219 13.089844 76.265625 13.660156 76.574219 L 48.953125 95.757812 C 49.550781 96.082031 50.273438 96.082031 50.871094 95.753906 L 86.347656 76.308594 C 86.914062 76 87.292969 75.4375 87.371094 74.796875 L 93.984375 20.554688 C 94.101562 19.613281 93.539062 18.722656 92.644531 18.417969 L 50.507812 4.105469 C 50.320312 4.042969 50.121094 4.003906 49.921875 4 Z M 49.875 8.117188 L 89.816406 21.683594 L 83.523438 73.296875 L 49.90625 91.722656 L 16.476562 73.550781 L 10.179688 21.929688 Z M 50.070312 12 C 49.265625 11.972656 48.527344 12.425781 48.1875 13.15625 L 22.1875 69.15625 C 21.898438 69.777344 21.949219 70.5 22.3125 71.074219 C 22.679688 71.652344 23.316406 72 24 72 L 32.875 72 C 33.652344 72 34.359375 71.546875 34.6875 70.84375 L 39.714844 60.015625 L 60.285156 60.015625 L 65.3125 70.84375 C 65.640625 71.546875 66.347656 72 67.125 72 L 76 72 C 76.683594 72 77.320312 71.652344 77.6875 71.074219 C 78.050781 70.5 78.101562 69.777344 77.8125 69.15625 L 51.8125 13.15625 C 51.496094 12.472656 50.824219 12.027344 50.070312 12 Z M 50 18.746094 L 72.867188 68 L 68.402344 68 L 63.375 57.171875 C 63.046875 56.46875 62.339844 56.015625 61.5625 56.015625 L 38.4375 56.015625 C 37.660156 56.015625 36.953125 56.46875 36.625 57.171875 L 31.59375 68 L 27.132812 68 Z M 50.078125 31 C 49.269531 30.96875 48.519531 31.429688 48.183594 32.164062 L 40.332031 49.1875 C 40.046875 49.808594 40.097656 50.527344 40.464844 51.101562 C 40.832031 51.675781 41.46875 52.023438 42.148438 52.023438 L 57.851562 52.023438 C 58.53125 52.023438 59.167969 51.675781 59.535156 51.101562 C 59.902344 50.527344 59.953125 49.808594 59.667969 49.1875 L 51.816406 32.164062 C 51.503906 31.480469 50.832031 31.03125 50.078125 31 Z M 50 37.773438 L 54.726562 48.023438 L 45.273438 48.023438 Z M 50 37.773438 "/>
</g>
</svg>
